PathFileType	4	(X/Y/Z)	Patient4_TMGait_0pt3_02_right_02.trc.trc
DataRate	CameraRate	NumFrames	NumMarkers	Units	OrigDataRate	OrigDataStartFrame	OrigNumFrames
50.541516245487	50.541516245487	4	33	mm	50.541516245487	71	       141
Frame#	Time	Sacral			L.Shoulder			Chest			R.Shoulder			Neck			R.ASIS			L.ASIS			R.Thigh.Superior			R.Thigh.Lateral			R.Thigh.Inferior			R.Patella			L.Thigh.Superior			L.Thigh.Lateral			L.Thigh.Inferior			L.Patella			L.Shank.Superior			L.Shank.Lateral			L.Shank.Inferior			R.Shank.Superior			R.Shank.Lateral			R.Shank.Inferior			R.Heel			R.Midfoot.Superior			R.Midfoot.Lateral			R.Toe			L.Heel			L.Midfoot.Lateral			L.Midfoot.Superior			L.Toe			L.Elbow			L.Wrist			R.Elbow			R.Wrist			
		X1	Y1	Z1	X2	Y2	Z2	X3	Y3	Z3	X4	Y4	Z4	X5	Y5	Z5	X6	Y6	Z6	X7	Y7	Z7	X8	Y8	Z8	X9	Y9	Z9	X10	Y10	Z10	X11	Y11	Z11	X12	Y12	Z12	X13	Y13	Z13	X14	Y14	Z14	X15	Y15	Z15	X16	Y16	Z16	X17	Y17	Z17	X18	Y18	Z18	X19	Y19	Z19	X20	Y20	Z20	X21	Y21	Z21	X22	Y22	Z22	X23	Y23	Z23	X24	Y24	Z24	X25	Y25	Z25	X26	Y26	Z26	X27	Y27	Z27	X28	Y28	Z28	X29	Y29	Z29	X30	Y30	Z30	X31	Y31	Z31	X32	Y32	Z32	X33	Y33	Z33	

71	3.625000000000	721.434033737757	998.765373991189	581.752493638639	855.085298579526	1412.764878738769	349.969905808607	992.355733019134	1351.801320700473	486.821920696870	951.785904946291	1441.089619912309	668.096630277637	876.126787878626	1483.213451369835	501.111484574054	963.603391939087	928.195134203001	658.861716311792	907.254043964781	952.730701016418	389.790262474374	964.492577136566	716.176272046377	621.956401590827	869.398428386746	614.203318227338	684.756776126541	925.843564595590	555.912417087044	596.249649242089	907.991478485714	466.230132625199	598.233884813610	985.749944216199	760.285310208062	415.620006569070	919.878308378602	634.134302605718	347.024045304912	1020.124170841597	571.144297743821	407.796667716640	1040.858429508220	507.978070948624	407.855354576732	1026.692507797057	437.484785651134	395.765967623279	964.764502347161	307.664952013054	340.680685486940	1051.397711172329	209.143945075748	397.724483401163	861.501082209883	383.884827620553	604.722679455748	773.560090000056	293.022121780617	666.190597272894	791.578561742752	195.791045808166	597.990760551329	629.643331145830	45.126270986440	563.764887099931	801.202830267603	95.436214058948	604.630894515950	709.785743161584	37.119185622269	641.122826478279	918.208845427303	40.852460912600	639.929867715862	964.314394986972	36.445458697353	431.448338663452	1040.738984192495	38.800880523950	353.449788227931	1115.649729837539	109.968266735544	379.403673840860	1247.742700302635	72.415597880837	356.013725982169	688.467230066549	1096.048626324467	294.006000348708	635.207491527465	843.709694363197	337.164275982710	1130.146221739731	1167.292190945756	801.319656939983	1339.261569788422	1272.105115124981	708.627081414210	
72	3.644785714286	722.992925409680	998.140658091932	579.250783094667	855.275411668090	1411.357878162959	345.794841685482	993.455336943926	1350.631348585559	481.900639865257	953.859194167458	1440.253749046644	663.218667534355	877.234574788208	1482.124920255786	496.553735700085	965.485160004892	927.147191736493	655.322049294307	907.752996144450	951.492023014604	386.532845145697	964.227359784550	714.630397478380	619.222602311843	867.936887948385	613.683019847123	682.582415939392	923.246816309553	554.613217567825	594.151852475003	904.139437809467	465.293059703470	596.301593070169	986.266782992124	759.185283326131	412.442130384047	919.079616706835	632.743215763899	345.213446446231	1019.861529292147	570.254521032476	405.123971237124	1039.321085212176	506.427069877778	405.702320837905	1025.321445976681	435.491655346890	393.828490420272	961.976343180554	305.969221821578	339.833775332054	1047.886555004485	207.055076820387	397.063319050702	857.328389237072	383.260910757829	603.340962564163	768.896089428188	293.137711466080	665.368437593104	786.297733618044	195.616434424949	597.533819024226	623.657813963507	45.319166506079	563.849805528669	795.521872827711	95.713444292719	604.913617309607	703.820870209075	37.219955382411	641.176930556584	912.253983247549	40.806560685025	639.926188579467	958.592900519835	36.384470902017	432.181753718945	1034.296601843265	37.706401464773	353.321044557825	1110.852554269418	107.169555246247	379.072024453412	1242.110213624751	67.050534957230	354.276735604459	689.052969775283	1094.508478738939	291.496628463344	638.111112901678	841.532773321869	335.697348063727	1136.103363992844	1169.413235150121	795.563312730697	1341.342666087073	1279.237313565031	700.466940469866	
73	3.664571428571	724.593317837410	997.716623612777	576.505421486155	855.626001228552	1410.087505711976	341.469699062194	994.686044779211	1349.597884528770	476.851972464432	956.034509839368	1439.549096988670	658.219326814590	878.453232415245	1481.186421890927	491.827599932822	967.332682311568	926.233777297748	651.584220410122	908.412859467839	950.515450361786	383.093345732116	964.062355594479	713.218233269911	616.340591453567	866.677018124921	613.266582059685	680.244208808495	920.949618080400	553.442476529033	591.900291559561	900.693738826376	464.407628978109	594.271616147816	987.286950915946	758.693457290990	409.520495833761	919.394281927278	631.882445121840	343.379484799451	1020.566075957214	569.900020186691	402.664576075268	1038.743805551960	505.265992237175	403.746503905464	1024.781690216247	433.818111226388	392.067825761307	959.891769901934	304.764621960654	338.813767042987	1044.559015148674	205.199700646294	396.524010458032	853.438360980765	382.732537015904	601.868529657008	764.456651328921	293.448466709082	664.490600586994	781.149951979536	195.596913112693	597.071045414737	617.730659858783	45.820836681908	563.967085226789	789.898199716742	96.017427448389	605.152630185516	697.911982592832	37.498186070768	641.241261576632	906.335555432133	40.682624095090	639.927412147343	952.550269399754	36.502216087253	432.725825969527	1027.745464099228	36.810955262852	353.221947711849	1105.850925758485	104.624791070390	378.939415743887	1236.328935593198	62.045597395478	353.131436866592	690.677289656125	1092.541888048913	288.481479167720	643.066311025089	838.750246043741	333.381405923457	1141.156472632804	1170.927939278919	789.762613444240	1343.303742294189	1284.423917468980	692.680613150396	
74	3.684357142857	726.206072138784	997.559419803647	573.497878934740	856.145672326813	1409.039141060900	337.029430886948	996.031734125474	1348.769258489125	471.729182885661	958.284082818017	1439.055960683195	653.140511706334	879.770433985848	1480.471013378105	486.986189713221	969.089274665638	925.526690248641	647.696104730045	909.248068377645	949.853500077362	379.496888372897	963.953295028371	712.018517390079	613.360659312991	865.587683031317	613.028324513346	677.788196677464	918.959501805095	552.465075398095	589.557568044208	897.684026137790	463.622631170447	592.217716204938	988.734858499584	758.758409485123	406.837217272930	920.648914921760	631.527905701608	341.489558241994	1022.035215188296	569.982730980914	400.395280975846	1038.976831521918	504.466442900292	401.972912985710	1024.906057221250	432.479340303944	390.481617260503	958.433345236297	304.032659852959	337.619542756875	1041.413704505449	203.630569651130	396.097846387612	849.853971591384	382.356134818266	600.353624250813	760.256250043209	294.015784026056	663.583285680439	776.162013477078	195.791187095968	596.627189029087	611.883459270452	46.724313015300	564.120345738491	784.356744939781	96.359349465724	605.345898322307	692.076286694152	38.007507585601	641.318415281478	900.463122447784	40.466862032809	639.935785801804	946.390994417944	36.729976806261	433.062750021219	1021.281272996723	36.144741394243	353.134421110262	1100.734153284718	102.467361454237	378.974367247474	1230.536845518579	57.732379899844	352.527270665289	693.176064987515	1090.335479189430	284.993251309623	649.858379284517	835.601479946840	330.199321776924	1145.417030999206	1171.962073995019	783.938550682711	1345.330741380740	1287.860413279154	685.262101002064	
